<svg xmlns="http://www.w3.org/2000/svg" viewBox="0 0 880 320" width="880" height="320" role="img" aria-label="Wireframe terrain generated from Yok4ai's GitHub contributions: 1,786 in the last year">
<title>1,786 contributions, rendered as terrain</title>
<defs>
  <linearGradient id="sky" x1="0" y1="0" x2="0" y2="1">
    <stop offset="0" stop-color="#fcfcfc"/>
    <stop offset="1" stop-color="#f1f1f1"/>
  </linearGradient>
  <linearGradient id="sungrad" x1="0" y1="0" x2="0" y2="1">
    <stop offset="0" stop-color="#555555"/>
    <stop offset="1" stop-color="#111111"/>
  </linearGradient>
  <linearGradient id="ridgefill" x1="0" y1="0" x2="0" y2="1">
    <stop offset="0" stop-color="#111111" stop-opacity="0.22"/>
    <stop offset="1" stop-color="#111111" stop-opacity="0.02"/>
  </linearGradient>
  <filter id="glow" x="-20%" y="-20%" width="140%" height="140%">
    <feGaussianBlur stdDeviation="3.5"/>
  </filter>
  <clipPath id="frame"><rect width="880" height="320" rx="14"/></clipPath>
</defs>
<style>
  .star { animation: tw 4s ease-in-out infinite; }
  @keyframes tw { 0%,100% { opacity:.15 } 50% { opacity:.9 } }
  .farscroll { animation: scroll 96s linear infinite; }
  .nearscroll { animation: scroll 48s linear infinite; }
  @keyframes scroll { to { transform: translateX(-880px) } }
  .gh { animation: gline 6s cubic-bezier(.55,0,1,.45) infinite; opacity: 0; }
  @keyframes gline {
    0% { transform: translateY(0); opacity: 0 }
    12% { opacity: 0.22 }
    100% { transform: translateY(120px); opacity: 0.08 }
  }
  .shoot { animation: shoot 13s linear infinite; opacity: 0; }
  @keyframes shoot {
    0%, 86% { transform: translate(0,0); opacity: 0 }
    88% { opacity: .8 }
    94%, 100% { transform: translate(-210px,72px); opacity: 0 }
  }
  @media (prefers-reduced-motion: reduce) { * { animation: none !important } }
</style>
<g clip-path="url(#frame)">
  <rect width="880" height="320" fill="url(#sky)"/>
  <g fill="#9a9a9a"><circle class="star" cx="432.93" cy="64.43" r="0.55" style="animation-duration:4.73s;animation-delay:-2.12s"/><circle class="star" cx="107.49" cy="79.98" r="0.98" style="animation-duration:4.44s;animation-delay:-3.66s"/><circle class="star" cx="628.53" cy="16.54" r="1.36" style="animation-duration:3.44s;animation-delay:-3.52s"/><circle class="star" cx="568.2" cy="69.39" r="0.68" style="animation-duration:2.78s;animation-delay:-4.84s"/><circle class="star" cx="254.35" cy="114.82" r="0.97" style="animation-duration:4.03s;animation-delay:-2.04s"/><circle class="star" cx="443.33" cy="124.49" r="1.38" style="animation-duration:2.51s;animation-delay:-4.63s"/><circle class="star" cx="277.17" cy="106.28" r="0.74" style="animation-duration:5.81s;animation-delay:-4.79s"/><circle class="star" cx="539.94" cy="62.51" r="0.54" style="animation-duration:5.62s;animation-delay:-3.65s"/><circle class="star" cx="473.19" cy="81.28" r="0.54" style="animation-duration:2.74s;animation-delay:-5.04s"/><circle class="star" cx="52.27" cy="19.93" r="0.8" style="animation-duration:5.3s;animation-delay:-2.07s"/><circle class="star" cx="496.94" cy="75.48" r="1.09" style="animation-duration:3.97s;animation-delay:-2.06s"/><circle class="star" cx="647.61" cy="80.71" r="0.62" style="animation-duration:6.34s;animation-delay:-3.28s"/><circle class="star" cx="203.37" cy="130.68" r="1.14" style="animation-duration:4.5s;animation-delay:-1.63s"/><circle class="star" cx="86.97" cy="90.84" r="1.34" style="animation-duration:4.63s;animation-delay:-1.16s"/><circle class="star" cx="290.3" cy="17.1" r="1.25" style="animation-duration:5.7s;animation-delay:-4.9s"/><circle class="star" cx="660.99" cy="22.01" r="0.71" style="animation-duration:3.47s;animation-delay:-0.15s"/><circle class="star" cx="601.31" cy="28.66" r="1.34" style="animation-duration:6.37s;animation-delay:-1.21s"/><circle class="star" cx="160.06" cy="130.47" r="0.87" style="animation-duration:4.06s;animation-delay:-5.18s"/><circle class="star" cx="838.96" cy="17.31" r="1.06" style="animation-duration:3.65s;animation-delay:-3.51s"/><circle class="star" cx="181.39" cy="34.41" r="1.02" style="animation-duration:3.01s;animation-delay:-1.22s"/><circle class="star" cx="244.32" cy="109.87" r="1.36" style="animation-duration:6.01s;animation-delay:-2.41s"/><circle class="star" cx="320.01" cy="104.08" r="1.36" style="animation-duration:5.96s;animation-delay:-1.11s"/><circle class="star" cx="462.59" cy="66.07" r="0.77" style="animation-duration:5s;animation-delay:-4.23s"/><circle class="star" cx="150.89" cy="134.23" r="1.36" style="animation-duration:2.8s;animation-delay:-5.03s"/><circle class="star" cx="297.83" cy="25.9" r="0.71" style="animation-duration:3.24s;animation-delay:-0.1s"/><circle class="star" cx="178.47" cy="49.71" r="0.68" style="animation-duration:3.2s;animation-delay:-2.89s"/><circle class="star" cx="702.19" cy="32.4" r="1.28" style="animation-duration:3.42s;animation-delay:-5.52s"/><circle class="star" cx="455.46" cy="100.54" r="1.18" style="animation-duration:4.18s;animation-delay:-5.54s"/><circle class="star" cx="460.48" cy="67.11" r="1.29" style="animation-duration:4.01s;animation-delay:-3.37s"/><circle class="star" cx="350.23" cy="148.97" r="1.21" style="animation-duration:4.09s;animation-delay:-0.29s"/><circle class="star" cx="235.11" cy="26.62" r="1.29" style="animation-duration:4.52s;animation-delay:-3.73s"/><circle class="star" cx="832.09" cy="95.86" r="1.1" style="animation-duration:3.9s;animation-delay:-2s"/><circle class="star" cx="167.25" cy="13.84" r="0.96" style="animation-duration:4.98s;animation-delay:-3.09s"/><circle class="star" cx="840.85" cy="109.45" r="1.21" style="animation-duration:2.9s;animation-delay:-2.37s"/><circle class="star" cx="606.56" cy="45.58" r="1.03" style="animation-duration:4.24s;animation-delay:-3.95s"/><circle class="star" cx="229.24" cy="120.79" r="1.13" style="animation-duration:6.15s;animation-delay:-4s"/><circle class="star" cx="414.98" cy="111.92" r="0.63" style="animation-duration:5.99s;animation-delay:-3.69s"/><circle class="star" cx="849.28" cy="63.42" r="0.7" style="animation-duration:5.78s;animation-delay:-0.27s"/><circle class="star" cx="195.87" cy="88.18" r="1.06" style="animation-duration:2.72s;animation-delay:-2.62s"/><circle class="star" cx="207.92" cy="21.45" r="1.32" style="animation-duration:4.92s;animation-delay:-1.72s"/><circle class="star" cx="107.08" cy="113.03" r="0.67" style="animation-duration:5.65s;animation-delay:-1.54s"/><circle class="star" cx="586.68" cy="34.09" r="0.84" style="animation-duration:6.19s;animation-delay:-4.44s"/><circle class="star" cx="220.68" cy="58.08" r="0.8" style="animation-duration:4.51s;animation-delay:-4.52s"/><circle class="star" cx="686.54" cy="23.46" r="1.25" style="animation-duration:5.78s;animation-delay:-5.04s"/><circle class="star" cx="457.57" cy="26.34" r="0.86" style="animation-duration:6.39s;animation-delay:-0.54s"/><circle class="star" cx="868.36" cy="51.93" r="1.38" style="animation-duration:4.63s;animation-delay:-3.97s"/><circle class="star" cx="814.73" cy="55.52" r="1" style="animation-duration:2.79s;animation-delay:-1.49s"/><circle class="star" cx="484.48" cy="20.11" r="0.7" style="animation-duration:5.65s;animation-delay:-3.98s"/><circle class="star" cx="466.8" cy="67.28" r="0.83" style="animation-duration:3.14s;animation-delay:-0.69s"/><circle class="star" cx="504.28" cy="37.92" r="0.85" style="animation-duration:3.86s;animation-delay:-5.87s"/><circle class="star" cx="231.85" cy="99.47" r="1.29" style="animation-duration:6.35s;animation-delay:-4.86s"/><circle class="star" cx="412.86" cy="126.77" r="1.2" style="animation-duration:4.26s;animation-delay:-4.23s"/><circle class="star" cx="220.66" cy="133.05" r="0.56" style="animation-duration:3.38s;animation-delay:-4s"/><circle class="star" cx="89.72" cy="52.19" r="1.18" style="animation-duration:6.31s;animation-delay:-5.24s"/><circle class="star" cx="437.22" cy="116.07" r="1.26" style="animation-duration:3.54s;animation-delay:-3.87s"/><circle class="star" cx="211.49" cy="149.37" r="0.94" style="animation-duration:3.78s;animation-delay:-4.6s"/><circle class="star" cx="659.72" cy="85.65" r="1.3" style="animation-duration:3.1s;animation-delay:-0.94s"/><circle class="star" cx="36.95" cy="67.81" r="0.68" style="animation-duration:4.96s;animation-delay:-3.55s"/><circle class="star" cx="554.55" cy="62.54" r="1.16" style="animation-duration:6.12s;animation-delay:-4.68s"/><circle class="star" cx="356.55" cy="53.98" r="1.3" style="animation-duration:2.71s;animation-delay:-3.55s"/><circle class="star" cx="525.27" cy="97.03" r="0.93" style="animation-duration:3.49s;animation-delay:-4.56s"/><circle class="star" cx="391.41" cy="118.99" r="1.25" style="animation-duration:3.22s;animation-delay:-3.6s"/><circle class="star" cx="862.23" cy="61.77" r="1.35" style="animation-duration:4.62s;animation-delay:-4.39s"/><circle class="star" cx="564.59" cy="75.5" r="1.36" style="animation-duration:4.13s;animation-delay:-0.82s"/><circle class="star" cx="455.89" cy="38.94" r="0.56" style="animation-duration:3.01s;animation-delay:-1.53s"/><circle class="star" cx="215.69" cy="95.78" r="1.13" style="animation-duration:5.95s;animation-delay:-0.79s"/></g>
  <g class="shoot"><line x1="150" y1="44" x2="196" y2="29" stroke="#9a9a9a" stroke-width="1.4" stroke-linecap="round"/></g>
  
  <mask id="sunmask">
    <circle cx="634" cy="188" r="74" fill="#fff"/>
    <rect x="520" y="168" width="230" height="3" fill="#000"/><rect x="520" y="181" width="230" height="4.6" fill="#000"/><rect x="520" y="194" width="230" height="6.2" fill="#000"/><rect x="520" y="207" width="230" height="7.800000000000001" fill="#000"/><rect x="520" y="220" width="230" height="9.4" fill="#000"/><rect x="520" y="233" width="230" height="11" fill="#000"/>
  </mask>
  <circle cx="634" cy="188" r="74" fill="url(#sungrad)" mask="url(#sunmask)" opacity="0.5"/>
  <g class="farscroll" stroke="#8a8a8a" fill="none" opacity="0.35" stroke-width="1">
    <path d="M0,186.55 L16.92,183.27 L33.85,184.82 L50.77,183.77 L67.69,160.88 L84.62,174.34 L101.54,172.79 L118.46,152 L135.38,167.8 L152.31,177.05 L169.23,194.26 L186.15,186.55 L203.08,195.94 L220,177.41 L236.92,177.05 L253.85,180.97 L270.77,187.17 L287.69,167.8 L304.62,166.55 L321.54,155.56 L338.46,165.1 L355.38,183.27 L372.31,158.04 L389.23,162.16 L406.15,182.32 L423.08,164.63 L440,200 L456.92,169.1 L473.85,153.92 L490.77,173.09 L507.69,172.19 L524.62,182.79 L541.54,187.17 L558.46,181.86 L575.38,191.89 L592.31,184.82 L609.23,177.78 L626.15,185.95 L643.08,195.94 L660,200 L676.92,161.3 L693.85,180.54 L710.77,192.97 L727.69,187.17 L744.62,200 L761.54,200 L778.46,195.94 L795.38,200 L812.31,194.26 L829.23,179.72 L846.15,182.79 L863.08,186.55 L880,186.55 L896.92,183.27 L913.85,184.82 L930.77,183.77 L947.69,160.88 L964.62,174.34 L981.54,172.79 L998.46,152 L1015.38,167.8 L1032.31,177.05 L1049.23,194.26 L1066.15,186.55 L1083.08,195.94 L1100,177.41 L1116.92,177.05 L1133.85,180.97 L1150.77,187.17 L1167.69,167.8 L1184.62,166.55 L1201.54,155.56 L1218.46,165.1 L1235.38,183.27 L1252.31,158.04 L1269.23,162.16 L1286.15,182.32 L1303.08,164.63 L1320,200 L1336.92,169.1 L1353.85,153.92 L1370.77,173.09 L1387.69,172.19 L1404.62,182.79 L1421.54,187.17 L1438.46,181.86 L1455.38,191.89 L1472.31,184.82 L1489.23,177.78 L1506.15,185.95 L1523.08,195.94 L1540,200 L1556.92,161.3 L1573.85,180.54 L1590.77,192.97 L1607.69,187.17 L1624.62,200 L1641.54,200 L1658.46,195.94 L1675.38,200 L1692.31,194.26 L1709.23,179.72 L1726.15,182.79 L1743.08,186.55 L1760,186.55"/>
  </g>
  <g class="nearscroll">
    <path d="M0,200 L0,200 L16.92,125.98 L33.85,89.61 L50.77,135.53 L67.69,133.37 L84.62,158.76 L101.54,169.26 L118.46,156.53 L135.38,180.56 L152.31,163.63 L169.23,146.77 L186.15,166.33 L203.08,190.28 L220,200 L236.92,107.28 L253.85,153.39 L270.77,183.17 L287.69,169.26 L304.62,200 L321.54,200 L338.46,190.28 L355.38,200 L372.31,186.25 L389.23,151.4 L406.15,158.76 L423.08,167.76 L440,167.76 L456.92,159.93 L473.85,163.63 L490.77,161.12 L507.69,106.27 L524.62,138.53 L541.54,134.8 L558.46,85 L575.38,122.86 L592.31,145.02 L609.23,186.25 L626.15,167.76 L643.08,190.28 L660,145.89 L676.92,145.02 L693.85,154.41 L710.77,169.26 L727.69,122.86 L744.62,119.85 L761.54,93.53 L778.46,116.39 L795.38,159.93 L812.31,99.46 L829.23,109.34 L846.15,157.63 L863.08,115.27 L880,200 L896.92,125.98 L913.85,89.61 L930.77,135.53 L947.69,133.37 L964.62,158.76 L981.54,169.26 L998.46,156.53 L1015.38,180.56 L1032.31,163.63 L1049.23,146.77 L1066.15,166.33 L1083.08,190.28 L1100,200 L1116.92,107.28 L1133.85,153.39 L1150.77,183.17 L1167.69,169.26 L1184.62,200 L1201.54,200 L1218.46,190.28 L1235.38,200 L1252.31,186.25 L1269.23,151.4 L1286.15,158.76 L1303.08,167.76 L1320,167.76 L1336.92,159.93 L1353.85,163.63 L1370.77,161.12 L1387.69,106.27 L1404.62,138.53 L1421.54,134.8 L1438.46,85 L1455.38,122.86 L1472.31,145.02 L1489.23,186.25 L1506.15,167.76 L1523.08,190.28 L1540,145.89 L1556.92,145.02 L1573.85,154.41 L1590.77,169.26 L1607.69,122.86 L1624.62,119.85 L1641.54,93.53 L1658.46,116.39 L1675.38,159.93 L1692.31,99.46 L1709.23,109.34 L1726.15,157.63 L1743.08,115.27 L1760,200 L1760,200 Z" fill="url(#ridgefill)" stroke="none"/>
    <path d="M0,200 L16.92,125.98 L33.85,89.61 L50.77,135.53 L67.69,133.37 L84.62,158.76 L101.54,169.26 L118.46,156.53 L135.38,180.56 L152.31,163.63 L169.23,146.77 L186.15,166.33 L203.08,190.28 L220,200 L236.92,107.28 L253.85,153.39 L270.77,183.17 L287.69,169.26 L304.62,200 L321.54,200 L338.46,190.28 L355.38,200 L372.31,186.25 L389.23,151.4 L406.15,158.76 L423.08,167.76 L440,167.76 L456.92,159.93 L473.85,163.63 L490.77,161.12 L507.69,106.27 L524.62,138.53 L541.54,134.8 L558.46,85 L575.38,122.86 L592.31,145.02 L609.23,186.25 L626.15,167.76 L643.08,190.28 L660,145.89 L676.92,145.02 L693.85,154.41 L710.77,169.26 L727.69,122.86 L744.62,119.85 L761.54,93.53 L778.46,116.39 L795.38,159.93 L812.31,99.46 L829.23,109.34 L846.15,157.63 L863.08,115.27 L880,200 L896.92,125.98 L913.85,89.61 L930.77,135.53 L947.69,133.37 L964.62,158.76 L981.54,169.26 L998.46,156.53 L1015.38,180.56 L1032.31,163.63 L1049.23,146.77 L1066.15,166.33 L1083.08,190.28 L1100,200 L1116.92,107.28 L1133.85,153.39 L1150.77,183.17 L1167.69,169.26 L1184.62,200 L1201.54,200 L1218.46,190.28 L1235.38,200 L1252.31,186.25 L1269.23,151.4 L1286.15,158.76 L1303.08,167.76 L1320,167.76 L1336.92,159.93 L1353.85,163.63 L1370.77,161.12 L1387.69,106.27 L1404.62,138.53 L1421.54,134.8 L1438.46,85 L1455.38,122.86 L1472.31,145.02 L1489.23,186.25 L1506.15,167.76 L1523.08,190.28 L1540,145.89 L1556.92,145.02 L1573.85,154.41 L1590.77,169.26 L1607.69,122.86 L1624.62,119.85 L1641.54,93.53 L1658.46,116.39 L1675.38,159.93 L1692.31,99.46 L1709.23,109.34 L1726.15,157.63 L1743.08,115.27 L1760,200" fill="none" stroke="#111111" stroke-width="2.4" filter="url(#glow)" opacity="0.2"/>
    <path d="M0,200 L16.92,125.98 L33.85,89.61 L50.77,135.53 L67.69,133.37 L84.62,158.76 L101.54,169.26 L118.46,156.53 L135.38,180.56 L152.31,163.63 L169.23,146.77 L186.15,166.33 L203.08,190.28 L220,200 L236.92,107.28 L253.85,153.39 L270.77,183.17 L287.69,169.26 L304.62,200 L321.54,200 L338.46,190.28 L355.38,200 L372.31,186.25 L389.23,151.4 L406.15,158.76 L423.08,167.76 L440,167.76 L456.92,159.93 L473.85,163.63 L490.77,161.12 L507.69,106.27 L524.62,138.53 L541.54,134.8 L558.46,85 L575.38,122.86 L592.31,145.02 L609.23,186.25 L626.15,167.76 L643.08,190.28 L660,145.89 L676.92,145.02 L693.85,154.41 L710.77,169.26 L727.69,122.86 L744.62,119.85 L761.54,93.53 L778.46,116.39 L795.38,159.93 L812.31,99.46 L829.23,109.34 L846.15,157.63 L863.08,115.27 L880,200 L896.92,125.98 L913.85,89.61 L930.77,135.53 L947.69,133.37 L964.62,158.76 L981.54,169.26 L998.46,156.53 L1015.38,180.56 L1032.31,163.63 L1049.23,146.77 L1066.15,166.33 L1083.08,190.28 L1100,200 L1116.92,107.28 L1133.85,153.39 L1150.77,183.17 L1167.69,169.26 L1184.62,200 L1201.54,200 L1218.46,190.28 L1235.38,200 L1252.31,186.25 L1269.23,151.4 L1286.15,158.76 L1303.08,167.76 L1320,167.76 L1336.92,159.93 L1353.85,163.63 L1370.77,161.12 L1387.69,106.27 L1404.62,138.53 L1421.54,134.8 L1438.46,85 L1455.38,122.86 L1472.31,145.02 L1489.23,186.25 L1506.15,167.76 L1523.08,190.28 L1540,145.89 L1556.92,145.02 L1573.85,154.41 L1590.77,169.26 L1607.69,122.86 L1624.62,119.85 L1641.54,93.53 L1658.46,116.39 L1675.38,159.93 L1692.31,99.46 L1709.23,109.34 L1726.15,157.63 L1743.08,115.27 L1760,200" fill="none" stroke="#111111" stroke-width="1.5"/>
    <g stroke="#111111" stroke-width="0.6" opacity="0.3"><line x1="16.92" y1="125.98" x2="16.92" y2="200"/><line x1="33.85" y1="89.61" x2="33.85" y2="200"/><line x1="50.77" y1="135.53" x2="50.77" y2="200"/><line x1="67.69" y1="133.37" x2="67.69" y2="200"/><line x1="84.62" y1="158.76" x2="84.62" y2="200"/><line x1="101.54" y1="169.26" x2="101.54" y2="200"/><line x1="118.46" y1="156.53" x2="118.46" y2="200"/><line x1="135.38" y1="180.56" x2="135.38" y2="200"/><line x1="152.31" y1="163.63" x2="152.31" y2="200"/><line x1="169.23" y1="146.77" x2="169.23" y2="200"/><line x1="186.15" y1="166.33" x2="186.15" y2="200"/><line x1="203.08" y1="190.28" x2="203.08" y2="200"/><line x1="236.92" y1="107.28" x2="236.92" y2="200"/><line x1="253.85" y1="153.39" x2="253.85" y2="200"/><line x1="270.77" y1="183.17" x2="270.77" y2="200"/><line x1="287.69" y1="169.26" x2="287.69" y2="200"/><line x1="338.46" y1="190.28" x2="338.46" y2="200"/><line x1="372.31" y1="186.25" x2="372.31" y2="200"/><line x1="389.23" y1="151.4" x2="389.23" y2="200"/><line x1="406.15" y1="158.76" x2="406.15" y2="200"/><line x1="423.08" y1="167.76" x2="423.08" y2="200"/><line x1="440" y1="167.76" x2="440" y2="200"/><line x1="456.92" y1="159.93" x2="456.92" y2="200"/><line x1="473.85" y1="163.63" x2="473.85" y2="200"/><line x1="490.77" y1="161.12" x2="490.77" y2="200"/><line x1="507.69" y1="106.27" x2="507.69" y2="200"/><line x1="524.62" y1="138.53" x2="524.62" y2="200"/><line x1="541.54" y1="134.8" x2="541.54" y2="200"/><line x1="558.46" y1="85" x2="558.46" y2="200"/><line x1="575.38" y1="122.86" x2="575.38" y2="200"/><line x1="592.31" y1="145.02" x2="592.31" y2="200"/><line x1="609.23" y1="186.25" x2="609.23" y2="200"/><line x1="626.15" y1="167.76" x2="626.15" y2="200"/><line x1="643.08" y1="190.28" x2="643.08" y2="200"/><line x1="660" y1="145.89" x2="660" y2="200"/><line x1="676.92" y1="145.02" x2="676.92" y2="200"/><line x1="693.85" y1="154.41" x2="693.85" y2="200"/><line x1="710.77" y1="169.26" x2="710.77" y2="200"/><line x1="727.69" y1="122.86" x2="727.69" y2="200"/><line x1="744.62" y1="119.85" x2="744.62" y2="200"/><line x1="761.54" y1="93.53" x2="761.54" y2="200"/><line x1="778.46" y1="116.39" x2="778.46" y2="200"/><line x1="795.38" y1="159.93" x2="795.38" y2="200"/><line x1="812.31" y1="99.46" x2="812.31" y2="200"/><line x1="829.23" y1="109.34" x2="829.23" y2="200"/><line x1="846.15" y1="157.63" x2="846.15" y2="200"/><line x1="863.08" y1="115.27" x2="863.08" y2="200"/><line x1="896.92" y1="125.98" x2="896.92" y2="200"/><line x1="913.85" y1="89.61" x2="913.85" y2="200"/><line x1="930.77" y1="135.53" x2="930.77" y2="200"/><line x1="947.69" y1="133.37" x2="947.69" y2="200"/><line x1="964.62" y1="158.76" x2="964.62" y2="200"/><line x1="981.54" y1="169.26" x2="981.54" y2="200"/><line x1="998.46" y1="156.53" x2="998.46" y2="200"/><line x1="1015.38" y1="180.56" x2="1015.38" y2="200"/><line x1="1032.31" y1="163.63" x2="1032.31" y2="200"/><line x1="1049.23" y1="146.77" x2="1049.23" y2="200"/><line x1="1066.15" y1="166.33" x2="1066.15" y2="200"/><line x1="1083.08" y1="190.28" x2="1083.08" y2="200"/><line x1="1116.92" y1="107.28" x2="1116.92" y2="200"/><line x1="1133.85" y1="153.39" x2="1133.85" y2="200"/><line x1="1150.77" y1="183.17" x2="1150.77" y2="200"/><line x1="1167.69" y1="169.26" x2="1167.69" y2="200"/><line x1="1218.46" y1="190.28" x2="1218.46" y2="200"/><line x1="1252.31" y1="186.25" x2="1252.31" y2="200"/><line x1="1269.23" y1="151.4" x2="1269.23" y2="200"/><line x1="1286.15" y1="158.76" x2="1286.15" y2="200"/><line x1="1303.08" y1="167.76" x2="1303.08" y2="200"/><line x1="1320" y1="167.76" x2="1320" y2="200"/><line x1="1336.92" y1="159.93" x2="1336.92" y2="200"/><line x1="1353.85" y1="163.63" x2="1353.85" y2="200"/><line x1="1370.77" y1="161.12" x2="1370.77" y2="200"/><line x1="1387.69" y1="106.27" x2="1387.69" y2="200"/><line x1="1404.62" y1="138.53" x2="1404.62" y2="200"/><line x1="1421.54" y1="134.8" x2="1421.54" y2="200"/><line x1="1438.46" y1="85" x2="1438.46" y2="200"/><line x1="1455.38" y1="122.86" x2="1455.38" y2="200"/><line x1="1472.31" y1="145.02" x2="1472.31" y2="200"/><line x1="1489.23" y1="186.25" x2="1489.23" y2="200"/><line x1="1506.15" y1="167.76" x2="1506.15" y2="200"/><line x1="1523.08" y1="190.28" x2="1523.08" y2="200"/><line x1="1540" y1="145.89" x2="1540" y2="200"/><line x1="1556.92" y1="145.02" x2="1556.92" y2="200"/><line x1="1573.85" y1="154.41" x2="1573.85" y2="200"/><line x1="1590.77" y1="169.26" x2="1590.77" y2="200"/><line x1="1607.69" y1="122.86" x2="1607.69" y2="200"/><line x1="1624.62" y1="119.85" x2="1624.62" y2="200"/><line x1="1641.54" y1="93.53" x2="1641.54" y2="200"/><line x1="1658.46" y1="116.39" x2="1658.46" y2="200"/><line x1="1675.38" y1="159.93" x2="1675.38" y2="200"/><line x1="1692.31" y1="99.46" x2="1692.31" y2="200"/><line x1="1709.23" y1="109.34" x2="1709.23" y2="200"/><line x1="1726.15" y1="157.63" x2="1726.15" y2="200"/><line x1="1743.08" y1="115.27" x2="1743.08" y2="200"/></g>
  </g>
  <rect y="200" width="880" height="120" fill="#f6f6f6"/>
  
  <g stroke="#111111" stroke-width="1" opacity="0.12"><line x1="356" y1="200" x2="-820" y2="320"/><line x1="363" y1="200" x2="-715" y2="320"/><line x1="370" y1="200" x2="-610" y2="320"/><line x1="377" y1="200" x2="-505" y2="320"/><line x1="384" y1="200" x2="-400" y2="320"/><line x1="391" y1="200" x2="-295" y2="320"/><line x1="398" y1="200" x2="-190" y2="320"/><line x1="405" y1="200" x2="-85" y2="320"/><line x1="412" y1="200" x2="20" y2="320"/><line x1="419" y1="200" x2="125" y2="320"/><line x1="426" y1="200" x2="230" y2="320"/><line x1="433" y1="200" x2="335" y2="320"/><line x1="440" y1="200" x2="440" y2="320"/><line x1="447" y1="200" x2="545" y2="320"/><line x1="454" y1="200" x2="650" y2="320"/><line x1="461" y1="200" x2="755" y2="320"/><line x1="468" y1="200" x2="860" y2="320"/><line x1="475" y1="200" x2="965" y2="320"/><line x1="482" y1="200" x2="1070" y2="320"/><line x1="489" y1="200" x2="1175" y2="320"/><line x1="496" y1="200" x2="1280" y2="320"/><line x1="503" y1="200" x2="1385" y2="320"/><line x1="510" y1="200" x2="1490" y2="320"/><line x1="517" y1="200" x2="1595" y2="320"/><line x1="524" y1="200" x2="1700" y2="320"/></g>
  <g stroke="#111111" stroke-width="1.2"><line class="gh" x1="0" y1="200" x2="880" y2="200" style="animation-delay:0s"/><line class="gh" x1="0" y1="200" x2="880" y2="200" style="animation-delay:-0.75s"/><line class="gh" x1="0" y1="200" x2="880" y2="200" style="animation-delay:-1.5s"/><line class="gh" x1="0" y1="200" x2="880" y2="200" style="animation-delay:-2.25s"/><line class="gh" x1="0" y1="200" x2="880" y2="200" style="animation-delay:-3s"/><line class="gh" x1="0" y1="200" x2="880" y2="200" style="animation-delay:-3.75s"/><line class="gh" x1="0" y1="200" x2="880" y2="200" style="animation-delay:-4.5s"/><line class="gh" x1="0" y1="200" x2="880" y2="200" style="animation-delay:-5.25s"/></g>
  <line x1="0" y1="200" x2="880" y2="200" stroke="#444444" stroke-width="1.4" opacity="0.5"/>
  <text x="26" y="38" font-family="ui-monospace,SFMono-Regular,Menlo,monospace" font-size="13" letter-spacing="5" fill="#6e6e6e">YOK4AI</text>
  <text x="854" y="38" text-anchor="end" font-family="ui-monospace,SFMono-Regular,Menlo,monospace" font-size="12" letter-spacing="1" fill="#6e6e6e">1,786 CONTRIBUTIONS / LAST YEAR</text>
  <rect width="880" height="320" rx="14" fill="none" stroke="#e4e4e4" stroke-width="1"/>
</g>
</svg>