<svg xmlns="http://www.w3.org/2000/svg" viewBox="0 0 152 38" width="152" height="38" role="img" aria-label="linkedin">
<defs>
  <linearGradient id="lsweep" x1="0" y1="0" x2="1" y2="0">
    <stop offset="0" stop-color="#ff5c8a" stop-opacity="0"/>
    <stop offset="0.5" stop-color="#ff5c8a" stop-opacity="0.3"/>
    <stop offset="1" stop-color="#ff5c8a" stop-opacity="0"/>
  </linearGradient>
  <clipPath id="lclip"><rect x="1" y="1" width="150" height="36"/></clipPath>
</defs>
<style>
  .ls { animation: ls 5s cubic-bezier(.4,0,.6,1) 0.7s infinite; }
  @keyframes ls { 0% { transform: translateX(-70px) } 45%, 100% { transform: translateX(222px) } }
  @media (prefers-reduced-motion: reduce) { * { animation: none !important } }
</style>
<rect x="1" y="1" width="150" height="36" fill="#ff2d6f" fill-opacity="0.05"/>
<rect x="1" y="1" width="150" height="36" fill="none" stroke="#ff2d6f" stroke-opacity="0.25"/>
<g clip-path="url(#lclip)"><rect class="ls" width="60" height="38" fill="url(#lsweep)"/></g>
<path d="M1,10 V1 H10 M142,1 H151 V10 M151,28 V37 H142 M10,37 H1 V28" fill="none" stroke="#ff2d6f" stroke-width="2" stroke-opacity="0.95"/>
<g transform="translate(23.9,11)"><path fill="#ff2d6f" transform="scale(0.667)" d="M20.447 20.452h-3.554v-5.569c0-1.328-.027-3.037-1.852-3.037-1.853 0-2.136 1.445-2.136 2.939v5.667H9.351V9h3.414v1.561h.046c.477-.9 1.637-1.85 3.37-1.85 3.601 0 4.267 2.37 4.267 5.455v6.286zM5.337 7.433c-1.144 0-2.063-.926-2.063-2.065 0-1.138.92-2.063 2.063-2.063 1.14 0 2.064.925 2.064 2.063 0 1.139-.925 2.065-2.064 2.065zm1.782 13.019H3.555V9h3.564v11.452zM22.225 0H1.771C.792 0 0 .774 0 1.729v20.542C0 23.227.792 24 1.771 24h20.451C23.2 24 24 23.227 24 22.271V1.729C24 .774 23.2 0 22.225 0z"/></g>
<text x="48.9" y="23.5" font-family="ui-monospace,SFMono-Regular,Menlo,monospace" font-size="11.5" letter-spacing="3" fill="#334155">LINKEDIN</text>
</svg>